HIERARCHY
ROOT joint_Root
{
	OFFSET 0.0 0.0 0.0
	CHANNELS 6 Xposition Yposition Zposition Zrotation Xrotation Yrotation 
	JOINT Hips
	{
		OFFSET -0.726466 93.3139 -2.00062
		CHANNELS 6 Xposition Yposition Zposition Zrotation Xrotation Yrotation 
		JOINT Spine
		{
			OFFSET 15.7357 0.0 0.0
			CHANNELS 6 Xposition Yposition Zposition Zrotation Xrotation Yrotation 
			JOINT Chest
			{
				OFFSET 8.98455 -0.406207 0.0
				CHANNELS 6 Xposition Yposition Zposition Zrotation Xrotation Yrotation 
				JOINT Neck
				{
					OFFSET 16.3773 0.0 0.0
					CHANNELS 6 Xposition Yposition Zposition Zrotation Xrotation Yrotation 
					JOINT Head
					{
						OFFSET 6.45672 0.0 0.0
						CHANNELS 6 Xposition Yposition Zposition Zrotation Xrotation Yrotation 
						End Site
						{
							OFFSET 0.0 0.0 0.0
						}
					}
				}
				JOINT Shoulder_L
				{
					OFFSET 12.9942 -0.242716 4.98039
					CHANNELS 6 Xposition Yposition Zposition Zrotation Xrotation Yrotation 
					JOINT UpperArm_L
					{
						OFFSET 5.34809 0.0 0.0
						CHANNELS 6 Xposition Yposition Zposition Zrotation Xrotation Yrotation 
						JOINT LowerArm_L
						{
							OFFSET 24.3286 1.87007e-05 0.0
							CHANNELS 6 Xposition Yposition Zposition Zrotation Xrotation Yrotation 
							JOINT Hand_L
							{
								OFFSET 22.2916 0.0 0.0
								CHANNELS 6 Xposition Yposition Zposition Zrotation Xrotation Yrotation 
								End Site
								{
									OFFSET 0.0 0.0 0.0
								}
							}
						}
					}
				}
				JOINT Shoulder_R
				{
					OFFSET 12.9945 -0.242716 -4.98039
					CHANNELS 6 Xposition Yposition Zposition Zrotation Xrotation Yrotation 
					JOINT UpperArm_R
					{
						OFFSET -5.34813 0.0 0.0
						CHANNELS 6 Xposition Yposition Zposition Zrotation Xrotation Yrotation 
						JOINT LowerArm_R
						{
							OFFSET -24.3289 0.000322201 0.0
							CHANNELS 6 Xposition Yposition Zposition Zrotation Xrotation Yrotation 
							JOINT Hand_R
							{
								OFFSET -22.2915 -0.000108084 0.0
								CHANNELS 6 Xposition Yposition Zposition Zrotation Xrotation Yrotation 
								End Site
								{
									OFFSET 0.0 0.0 0.0
								}
							}
						}
					}
				}
			}
		}
		JOINT UpperLeg_L
		{
			OFFSET -2.19248 -6.46944 0.0
			CHANNELS 6 Xposition Yposition Zposition Zrotation Xrotation Yrotation 
			JOINT LowerLeg_L
			{
				OFFSET 39.0811 0.0 -1.23785e-05
				CHANNELS 6 Xposition Yposition Zposition Zrotation Xrotation Yrotation 
				JOINT Foot_L
				{
					OFFSET 40.9854 0.0 -1.26872e-05
					CHANNELS 6 Xposition Yposition Zposition Zrotation Xrotation Yrotation 
					JOINT Toes_L
					{
						OFFSET 11.7543 0.0 0.0
						CHANNELS 6 Xposition Yposition Zposition Zrotation Xrotation Yrotation 
						End Site
						{
							OFFSET 0.0 0.0 0.0
						}
					}
				}
			}
		}
		JOINT UpperLeg_R
		{
			OFFSET -2.19251 6.46944 0.0
			CHANNELS 6 Xposition Yposition Zposition Zrotation Xrotation Yrotation 
			JOINT LowerLeg_R
			{
				OFFSET -39.0811 -0.00228153 -0.0401928
				CHANNELS 6 Xposition Yposition Zposition Zrotation Xrotation Yrotation 
				JOINT Foot_R
				{
					OFFSET -40.9854 0.0 0.0
					CHANNELS 6 Xposition Yposition Zposition Zrotation Xrotation Yrotation 
					JOINT Toes_R
					{
						OFFSET -11.7543 0.0 0.0
						CHANNELS 6 Xposition Yposition Zposition Zrotation Xrotation Yrotation 
						End Site
						{
							OFFSET 0.0 0.0 0.0
						}
					}
				}
			}
		}
	}
}
MOTION
Frames:	8
Frame Time:	0.0333333
0.000000 0.000000 0.000000 0.000000 0.000000 -0.000000 -0.009496 92.383200 -1.723260 88.107200 -0.862651 4.952500 15.735700 0.000005 -0.000001 82.327500 85.121200 -81.351600 8.984550 -0.406207 -0.000000 1.917080 -1.351720 1.972700 16.377300 -0.000001 -0.000001 1.982050 -2.142500 -0.630863 6.456720 -0.000001 -0.000000 4.187110 -2.563020 -1.505880 12.994200 -0.242716 4.980390 -89.835200 -0.504608 -71.908700 5.348090 -0.000007 -0.000001 -67.365900 40.252900 -14.838600 24.328600 0.000019 0.000005 0.294175 0.633657 -24.855500 22.291600 -0.000001 0.000005 5.544000 5.420470 -3.588920 12.994500 -0.242716 -4.980390 88.291300 5.431290 -72.507100 -5.348130 -0.000001 -0.000004 -65.237400 40.838900 -15.727700 -24.328900 0.000322 -0.000009 1.627540 5.933910 -15.377300 -22.291500 -0.000108 -0.000004 8.582200 5.393580 -2.730060 -2.192480 -6.469440 -0.000000 -175.909000 -8.285050 -2.733650 39.081100 -0.000007 -0.000012 -0.091503 0.214694 23.083700 40.985400 -0.000006 -0.000013 0.282607 3.141370 -65.584900 11.754300 -0.000000 0.000003 -0.000054 -0.000603 -16.601000 -2.192510 6.469440 -0.000001 179.144000 14.682000 -179.896000 -39.081100 -0.002282 -0.040193 -0.058247 0.175446 19.337600 -40.985400 0.000008 0.000006 1.728140 7.431910 -64.627100 -11.754300 -0.000006 -0.000006 -0.007907 -0.087270 -20.126700
0.000000 0.000000 0.000000 0.000000 0.000000 -0.000000 -0.017144 92.384100 -1.719880 88.146400 -0.918940 4.934740 15.735700 0.000005 -0.000001 82.726500 85.117300 -81.721200 8.984550 -0.406207 -0.000000 1.933400 -1.286730 2.030510 16.377300 -0.000001 -0.000001 1.880720 -2.141980 -0.599363 6.456720 -0.000001 -0.000000 4.156290 -2.561300 -1.729200 12.994200 -0.242716 4.980390 -90.004300 0.012875 -71.704200 5.348090 -0.000007 -0.000001 -65.929900 37.599200 -15.319700 24.328600 0.000019 0.000005 0.934564 1.744170 -28.177200 22.291600 -0.000001 0.000005 1.549490 5.384140 -2.414660 12.994500 -0.242716 -4.980390 88.328200 5.298150 -72.458600 -5.348130 -0.000001 -0.000004 -65.560200 40.560000 -15.585800 -24.328900 0.000322 -0.000009 1.627290 5.922480 -15.403200 -22.291500 -0.000108 -0.000004 8.490460 5.393860 -2.738440 -2.192480 -6.469440 -0.000000 -175.949000 -8.280390 -2.717790 39.081100 -0.000007 -0.000012 -0.090079 0.211813 23.038900 40.985400 -0.000006 -0.000013 0.268914 3.105360 -65.571200 11.754300 -0.000000 0.000003 -0.000055 -0.000618 -16.601500 -2.192510 6.469440 -0.000001 179.094000 14.703800 -179.917000 -39.081100 -0.002282 -0.040193 -0.060904 0.182872 19.351900 -40.985400 0.000008 0.000006 1.695730 7.530140 -64.630700 -11.754300 -0.000006 -0.000006 -0.007953 -0.087652 -20.142300
0.000000 0.000000 0.000000 0.000000 0.000000 -0.000000 -0.059208 92.390100 -1.731740 88.124500 -0.838775 4.887910 15.735700 0.000005 -0.000001 83.363700 85.137600 -82.317600 8.984550 -0.406207 -0.000000 1.905640 -1.176640 2.110050 16.377300 -0.000001 -0.000001 1.802390 -2.098680 -0.686693 6.456720 -0.000001 -0.000000 4.112510 -2.755990 -1.763340 12.994200 -0.242716 4.980390 -90.075500 0.224923 -71.457100 5.348090 -0.000007 -0.000001 -63.537400 34.558500 -16.923100 24.328600 0.000019 0.000005 0.909020 1.428580 -32.482200 22.291600 -0.000001 0.000005 -0.592493 5.370310 -1.995390 12.994500 -0.242716 -4.980390 88.364400 5.175450 -72.434800 -5.348130 -0.000001 -0.000004 -65.889600 40.320600 -15.289500 -24.328900 0.000322 -0.000009 1.611780 5.830120 -15.492700 -22.291500 -0.000108 -0.000004 8.434920 5.393150 -2.716090 -2.192480 -6.469440 -0.000000 -175.918000 -8.187000 -2.778850 39.081100 -0.000007 -0.000012 -0.089547 0.210737 23.021800 40.985400 -0.000006 -0.000013 0.243668 3.112180 -65.542800 11.754300 -0.000000 0.000003 -0.000057 -0.000636 -16.602200 -2.192510 6.469440 -0.000001 179.146000 14.801500 -179.931000 -39.081100 -0.002282 -0.040193 -0.060811 0.183434 19.271200 -40.985400 0.000008 0.000006 1.657250 7.542050 -64.580200 -11.754300 -0.000006 -0.000006 -0.007735 -0.085859 -20.069100
0.000000 0.000000 0.000000 0.000000 0.000000 -0.000000 -0.131397 92.396300 -1.770160 88.114900 -0.622486 4.810780 15.735700 0.000005 -0.000001 83.858100 85.163900 -82.769200 8.984550 -0.406207 -0.000000 1.862320 -1.090290 2.193550 16.377300 -0.000001 -0.000001 1.728260 -2.092610 -0.808712 6.456720 -0.000001 -0.000000 4.042810 -2.945860 -1.873090 12.994200 -0.242716 4.980390 -90.081300 0.237786 -71.136700 5.348090 -0.000007 -0.000001 -60.307000 30.607500 -19.535300 24.328600 0.000019 0.000005 1.845670 2.356030 -38.059400 22.291600 -0.000001 0.000005 -0.099696 5.380010 -2.294860 12.994500 -0.242716 -4.980390 88.388600 5.072590 -72.351200 -5.348130 -0.000001 -0.000004 -66.049500 40.335400 -15.178300 -24.328900 0.000322 -0.000009 1.629970 5.915190 -15.445400 -22.291500 -0.000108 -0.000004 8.504290 5.391680 -2.669360 -2.192480 -6.469440 -0.000000 -175.889000 -8.022980 -2.915470 39.081100 -0.000007 -0.000012 -0.090927 0.214086 23.012100 40.985400 -0.000006 -0.000013 0.196890 3.126120 -65.481500 11.754300 -0.000000 0.000003 -0.000063 -0.000691 -16.604300 -2.192510 6.469440 -0.000001 179.225000 14.926400 180.000000 -39.081100 -0.002282 -0.040193 -0.060074 0.181740 19.230400 -40.985400 0.000008 0.000006 1.725300 7.467700 -64.567000 -11.754300 -0.000006 -0.000006 -0.007884 -0.087080 -20.118900
0.000000 0.000000 0.000000 0.000000 0.000000 -0.000000 -0.217149 92.401700 -1.810470 88.140200 -0.357173 4.792400 15.735700 0.000005 -0.000001 84.186300 85.189100 -83.064600 8.984550 -0.406207 -0.000000 1.817660 -1.032250 2.257770 16.377300 -0.000001 -0.000001 1.798840 -2.094190 -1.030830 6.456720 -0.000001 -0.000000 3.914090 -3.079120 -1.998430 12.994200 -0.242716 4.980390 -90.064900 0.187309 -70.902300 5.348090 -0.000007 -0.000001 -56.496300 25.268900 -22.785400 24.328600 0.000019 0.000005 3.767560 3.831330 -44.563900 22.291600 -0.000001 0.000005 1.602910 5.404320 -3.074240 12.994500 -0.242716 -4.980390 88.402900 4.992330 -72.234400 -5.348130 -0.000001 -0.000004 -66.187200 40.251800 -15.155600 -24.328900 0.000322 -0.000009 1.631640 6.014570 -15.217800 -22.291500 -0.000108 -0.000004 8.577770 5.392360 -2.690790 -2.192480 -6.469440 -0.000000 -175.849000 -7.968550 -2.976340 39.081100 -0.000007 -0.000012 -0.091501 0.215833 22.974100 40.985400 -0.000006 -0.000013 0.183170 3.372010 -65.408900 11.754300 -0.000000 0.000003 -0.000056 -0.000628 -16.601900 -2.192510 6.469440 -0.000001 179.267000 15.136100 179.973000 -39.081100 -0.002282 -0.040193 -0.059700 0.180754 19.221900 -40.985400 0.000008 0.000006 1.767880 7.339560 -64.563400 -11.754300 -0.000006 -0.000006 -0.007893 -0.087160 -20.122200
0.000000 0.000000 0.000000 0.000000 0.000000 -0.000000 -0.321552 92.410200 -1.828930 88.176700 -0.123165 4.836960 15.735700 0.000005 -0.000001 84.187800 85.191000 -83.040700 8.984550 -0.406207 -0.000000 1.814210 -1.032970 2.308320 16.377300 -0.000001 -0.000001 1.861020 -2.068890 -1.258270 6.456720 -0.000001 -0.000000 3.844320 -3.123670 -2.088870 12.994200 -0.242716 4.980390 -89.905800 -0.271164 -70.841400 5.348090 -0.000007 -0.000001 -53.380000 18.176600 -26.202600 24.328600 0.000019 0.000005 4.442960 3.589890 -51.147500 22.291600 -0.000001 0.000005 3.269660 5.428360 -3.876340 12.994500 -0.242716 -4.980390 88.414300 4.950480 -72.214600 -5.348130 -0.000001 -0.000004 -66.302200 39.972900 -15.116800 -24.328900 0.000322 -0.000009 1.651290 6.127540 -15.122700 -22.291500 -0.000108 -0.000004 8.635660 5.391390 -2.659830 -2.192480 -6.469440 -0.000000 -175.821000 -7.788490 -2.940710 39.081100 -0.000007 -0.000012 -0.091352 0.216354 22.891100 40.985400 -0.000006 -0.000013 0.123958 3.462320 -65.323300 11.754300 -0.000000 0.000003 -0.000064 -0.000703 -16.604800 -2.192510 6.469440 -0.000001 179.290000 15.320100 -179.963000 -39.081100 -0.002282 -0.040193 -0.056942 0.172971 19.208800 -40.985400 0.000008 0.000006 1.956210 7.253870 -64.604800 -11.754300 -0.000006 -0.000006 -0.007830 -0.086643 -20.101100
0.000000 0.000000 0.000000 0.000000 0.000000 -0.000000 -0.429947 92.406600 -1.841370 88.205000 0.082309 4.849090 15.735700 0.000005 -0.000001 83.953800 85.217300 -82.789300 8.984550 -0.406207 -0.000000 1.758350 -1.067960 2.343310 16.377300 -0.000001 -0.000001 1.925130 -2.063380 -1.389650 6.456720 -0.000001 -0.000000 3.836460 -3.087300 -2.217010 12.994200 -0.242716 4.980390 -89.710500 -0.827488 -70.715700 5.348090 -0.000007 -0.000001 -50.455400 10.221400 -30.222500 24.328600 0.000019 0.000005 3.398740 2.183890 -57.327900 22.291600 -0.000001 0.000005 5.276520 5.440870 -4.313230 12.994500 -0.242716 -4.980390 88.406400 4.961390 -72.167900 -5.348130 -0.000001 -0.000004 -66.164700 39.931800 -15.181000 -24.328900 0.000322 -0.000009 1.667670 6.166480 -15.174200 -22.291500 -0.000108 -0.000004 8.654550 5.392060 -2.681140 -2.192480 -6.469440 -0.000000 -175.768000 -7.742040 -2.970070 39.081100 -0.000007 -0.000012 -0.093656 0.221754 22.896400 40.985400 -0.000006 -0.000013 0.076039 3.609450 -65.288200 11.754300 -0.000000 0.000003 -0.000050 -0.000567 -16.599600 -2.192510 6.469440 -0.000001 179.311000 15.499700 -179.954000 -39.081100 -0.002282 -0.040193 -0.058720 0.177821 19.234200 -40.985400 0.000008 0.000006 1.943870 7.241870 -64.630100 -11.754300 -0.000006 -0.000006 -0.007890 -0.087135 -20.121200
0.000000 0.000000 0.000000 0.000000 0.000000 -0.000000 -0.537024 92.414200 -1.834320 88.191700 0.094435 4.854550 15.735700 0.000005 -0.000001 83.993900 85.244900 -82.818200 8.984550 -0.406207 -0.000000 1.704240 -1.056700 2.365080 16.377300 -0.000001 -0.000001 1.942110 -1.983230 -1.406500 6.456720 -0.000001 -0.000000 3.765420 -3.039920 -2.298870 12.994200 -0.242716 4.980390 -89.524200 -1.334330 -70.371600 5.348090 -0.000007 -0.000001 -48.213500 1.395790 -35.033900 24.328600 0.000019 0.000005 1.558610 0.815413 -62.445400 22.291600 -0.000001 0.000005 7.604920 5.460070 -4.994490 12.994500 -0.242716 -4.980390 88.375800 5.025440 -72.063600 -5.348130 -0.000001 -0.000004 -65.900600 39.916700 -15.322600 -24.328900 0.000322 -0.000009 1.683830 6.161410 -15.326400 -22.291500 -0.000108 -0.000004 8.718290 5.390020 -2.615910 -2.192480 -6.469440 -0.000000 -175.670000 -7.746030 -2.927760 39.081100 -0.000007 -0.000012 -0.095270 0.226291 22.831400 40.985400 -0.000006 -0.000013 0.005059 3.666900 -65.250500 11.754300 -0.000000 0.000003 -0.000060 -0.000663 -16.603200 -2.192510 6.469440 -0.000001 179.408000 15.563900 -179.911000 -39.081100 -0.002282 -0.040193 -0.055629 0.169543 19.173200 -40.985400 0.000008 0.000006 2.114360 7.231170 -64.641200 -11.754300 -0.000006 -0.000006 -0.007655 -0.085194 -20.041900
